<svg width="48" height="47" viewBox="0 0 48 47" fill="none" xmlns="http://www.w3.org/2000/svg">
<rect x="0.246704" width="47" height="47" rx="20" fill="white" fill-opacity="0.5"/>
<path d="M19.0498 33.625H15.8717V20.575L13.8186 15.625H11.3717V13.375H15.3373L17.1936 17.875H35.6436L31.6217 25.7781C32.578 25.9281 33.3797 26.3687 34.027 27.1C34.6735 27.8312 34.9967 28.6938 34.9967 29.6875C34.9967 30.775 34.6172 31.7031 33.8582 32.4719C33.0985 33.2406 32.1748 33.625 31.0873 33.625C29.9811 33.625 29.0485 33.2406 28.2895 32.4719C27.5297 31.7031 27.1498 30.775 27.1498 29.6875C27.1498 29.3125 27.1967 28.9656 27.2905 28.6469C27.3842 28.3281 27.5155 28.0188 27.6842 27.7188L23.9998 27.3812L19.0498 33.625ZM29.203 25.6094L31.9873 20.125L18.1217 20.1531L20.0623 24.7656L29.203 25.6094ZM18.1217 25.4125V31.3469L21.4686 27.1562L18.7405 26.9031L18.1217 25.4125ZM31.0592 31.375C31.5467 31.375 31.9498 31.2108 32.2686 30.8823C32.5873 30.5545 32.7467 30.1562 32.7467 29.6875C32.7467 29.2 32.5873 28.7969 32.2686 28.4781C31.9498 28.1594 31.5467 28 31.0592 28C30.5905 28 30.1922 28.1594 29.8645 28.4781C29.536 28.7969 29.3717 29.2 29.3717 29.6875C29.3717 30.1562 29.536 30.5545 29.8645 30.8823C30.1922 31.2108 30.5905 31.375 31.0592 31.375ZM29.203 25.6094L20.0623 24.7656L29.203 25.6094Z" fill="#3734A9"/>
</svg>
