<svg width="49" height="49" viewBox="0 0 49 49" fill="none" xmlns="http://www.w3.org/2000/svg">
<path d="M28.6842 26.75H27.7955L27.4805 26.4463C28.6211 25.1233 29.2479 23.4343 29.2467 21.6875C29.2467 20.2412 28.8178 18.8274 28.0143 17.6249C27.2108 16.4224 26.0688 15.4851 24.7326 14.9316C23.3964 14.3782 21.9261 14.2334 20.5076 14.5155C19.0891 14.7977 17.7862 15.4941 16.7635 16.5168C15.7408 17.5395 15.0444 18.8424 14.7622 20.2609C14.4801 21.6794 14.6249 23.1497 15.1783 24.4859C15.7318 25.8221 16.6691 26.9641 17.8716 27.7676C19.0741 28.5711 20.4879 29 21.9342 29C23.7455 29 25.4105 28.3363 26.693 27.2338L26.9967 27.5488V28.4375L32.6217 34.0513L34.298 32.375L28.6842 26.75ZM21.9342 26.75C19.133 26.75 16.8717 24.4888 16.8717 21.6875C16.8717 18.8863 19.133 16.625 21.9342 16.625C24.7355 16.625 26.9967 18.8863 26.9967 21.6875C26.9967 24.4888 24.7355 26.75 21.9342 26.75Z" fill="#3734A9"/>
</svg>
